<?xml version="1.0" encoding="UTF-8"?>
<svg id="Layer_2" data-name="Layer 2" xmlns="http://www.w3.org/2000/svg" viewBox="0 0 1337.47 540.23">
  <defs>
    <style>
      .cls-1 {
        fill: #918e88;
      }
    </style>
  </defs>
  <g id="Layer_3" data-name="Layer 3">
    <path class="cls-1" d="M1337.47,250.21V16c0-8.83-7.16-16-16-16h-636.73c-8.84,0-16,7.17-16,16v113.35c0,4.25-1.69,8.32-4.69,11.32l-124.76,124.77c-3,3-7.07,4.68-11.32,4.68H16c-8.84,0-16,7.17-16,16v238.11c0,8.84,7.16,16,16,16h1031.45c4.25,0,8.32-1.68,11.32-4.68l73.25-73.26,20.39,20.4-30.22,30.23c-10.08,10.08-2.95,27.31,11.31,27.31h187.97c8.84,0,16-7.16,16-16v-187.96c0-14.26-17.23-21.4-27.31-11.32l-27.99,27.99-20.4-20.4,71.01-71.01c3-3,4.69-7.07,4.69-11.32ZM1137.77,532.52c-5.37,0-9.72-4.35-9.72-9.72s4.35-9.72,9.72-9.72,9.72,4.35,9.72,9.72-4.35,9.72-9.72,9.72ZM1319.92,331.65c5.37,0,9.72,4.36,9.72,9.73s-4.35,9.72-9.72,9.72-9.73-4.35-9.73-9.72,4.36-9.73,9.73-9.73ZM1319.92,513.08c5.37,0,9.72,4.35,9.72,9.72s-4.35,9.72-9.72,9.72-9.73-4.35-9.73-9.72,4.36-9.72,9.73-9.72ZM1180.7,454.41l-20.4-20.4,73.19-73.18,20.39,20.39-73.18,73.19Z"/>
  </g>
</svg>